<mxfile host="app.diagrams.net" modified="2020-04-09T05:49:28.912Z" agent="Mozilla/5.0 (Macintosh; Intel Mac OS X 10_11_6) AppleWebKit/537.36 (KHTML, like Gecko) Chrome/80.0.3987.149 Safari/537.36" etag="4sKwgiJlzjhGVmhTrVAV" version="12.9.3" type="github">
  <diagram id="OEYxpR9rzvsFhozrHmW_" name="第 1 页">
    <mxGraphModel dx="1426" dy="732" grid="1" gridSize="10" guides="1" tooltips="1" connect="1" arrows="1" fold="1" page="1" pageScale="1" pageWidth="827" pageHeight="1169" math="0" shadow="0">
      <root>
        <mxCell id="0" />
        <mxCell id="1" parent="0" />
        <mxCell id="PcwNcNAhhEbV8BFVs8KB-27" style="edgeStyle=none;rounded=0;orthogonalLoop=1;jettySize=auto;html=1;exitX=0.5;exitY=0;exitDx=0;exitDy=0;entryX=0.5;entryY=1;entryDx=0;entryDy=0;startArrow=none;startFill=0;" edge="1" parent="1" source="PcwNcNAhhEbV8BFVs8KB-1" target="PcwNcNAhhEbV8BFVs8KB-26">
          <mxGeometry relative="1" as="geometry" />
        </mxCell>
        <mxCell id="PcwNcNAhhEbV8BFVs8KB-1" value="isdipcoord&lt;br&gt;GN" style="rounded=1;whiteSpace=wrap;html=1;" vertex="1" parent="1">
          <mxGeometry x="330" y="90" width="120" height="60" as="geometry" />
        </mxCell>
        <mxCell id="PcwNcNAhhEbV8BFVs8KB-7" style="rounded=0;orthogonalLoop=1;jettySize=auto;html=1;exitX=0.5;exitY=0;exitDx=0;exitDy=0;entryX=0.5;entryY=1;entryDx=0;entryDy=0;startArrow=classic;startFill=1;" edge="1" parent="1" source="PcwNcNAhhEbV8BFVs8KB-2" target="PcwNcNAhhEbV8BFVs8KB-1">
          <mxGeometry relative="1" as="geometry" />
        </mxCell>
        <mxCell id="PcwNcNAhhEbV8BFVs8KB-11" style="edgeStyle=none;rounded=0;orthogonalLoop=1;jettySize=auto;html=1;exitX=0.5;exitY=1;exitDx=0;exitDy=0;startArrow=none;startFill=0;" edge="1" parent="1" source="PcwNcNAhhEbV8BFVs8KB-2" target="PcwNcNAhhEbV8BFVs8KB-9">
          <mxGeometry relative="1" as="geometry" />
        </mxCell>
        <mxCell id="PcwNcNAhhEbV8BFVs8KB-2" value="isdippredictorcn&lt;br&gt;CN" style="rounded=1;whiteSpace=wrap;html=1;" vertex="1" parent="1">
          <mxGeometry x="250" y="200" width="120" height="60" as="geometry" />
        </mxCell>
        <mxCell id="PcwNcNAhhEbV8BFVs8KB-8" style="edgeStyle=none;rounded=0;orthogonalLoop=1;jettySize=auto;html=1;exitX=0.5;exitY=0;exitDx=0;exitDy=0;entryX=0.5;entryY=1;entryDx=0;entryDy=0;startArrow=classic;startFill=1;" edge="1" parent="1" source="PcwNcNAhhEbV8BFVs8KB-4" target="PcwNcNAhhEbV8BFVs8KB-1">
          <mxGeometry relative="1" as="geometry" />
        </mxCell>
        <mxCell id="PcwNcNAhhEbV8BFVs8KB-12" style="edgeStyle=none;rounded=0;orthogonalLoop=1;jettySize=auto;html=1;exitX=0.5;exitY=1;exitDx=0;exitDy=0;startArrow=none;startFill=0;" edge="1" parent="1" source="PcwNcNAhhEbV8BFVs8KB-4" target="PcwNcNAhhEbV8BFVs8KB-10">
          <mxGeometry relative="1" as="geometry" />
        </mxCell>
        <mxCell id="PcwNcNAhhEbV8BFVs8KB-4" value="isdippredictorhk&lt;br&gt;GN" style="rounded=1;whiteSpace=wrap;html=1;" vertex="1" parent="1">
          <mxGeometry x="404" y="200" width="120" height="60" as="geometry" />
        </mxCell>
        <mxCell id="PcwNcNAhhEbV8BFVs8KB-9" value="feature&lt;br&gt;CN" style="rounded=1;whiteSpace=wrap;html=1;" vertex="1" parent="1">
          <mxGeometry x="250" y="290" width="120" height="60" as="geometry" />
        </mxCell>
        <mxCell id="PcwNcNAhhEbV8BFVs8KB-10" value="feature&lt;br&gt;GN" style="rounded=1;whiteSpace=wrap;html=1;" vertex="1" parent="1">
          <mxGeometry x="404" y="290" width="120" height="60" as="geometry" />
        </mxCell>
        <mxCell id="PcwNcNAhhEbV8BFVs8KB-29" style="edgeStyle=none;rounded=0;orthogonalLoop=1;jettySize=auto;html=1;exitX=0.5;exitY=0;exitDx=0;exitDy=0;startArrow=none;startFill=0;" edge="1" parent="1" source="PcwNcNAhhEbV8BFVs8KB-13" target="PcwNcNAhhEbV8BFVs8KB-28">
          <mxGeometry relative="1" as="geometry" />
        </mxCell>
        <mxCell id="PcwNcNAhhEbV8BFVs8KB-13" value="isdipcoord&lt;br&gt;GN" style="rounded=1;whiteSpace=wrap;html=1;" vertex="1" parent="1">
          <mxGeometry x="320" y="460" width="120" height="60" as="geometry" />
        </mxCell>
        <mxCell id="PcwNcNAhhEbV8BFVs8KB-14" style="rounded=0;orthogonalLoop=1;jettySize=auto;html=1;exitX=0.5;exitY=0;exitDx=0;exitDy=0;entryX=0.5;entryY=1;entryDx=0;entryDy=0;startArrow=classic;startFill=1;" edge="1" source="PcwNcNAhhEbV8BFVs8KB-16" target="PcwNcNAhhEbV8BFVs8KB-13" parent="1">
          <mxGeometry relative="1" as="geometry" />
        </mxCell>
        <mxCell id="PcwNcNAhhEbV8BFVs8KB-23" style="edgeStyle=none;rounded=0;orthogonalLoop=1;jettySize=auto;html=1;exitX=1;exitY=0.5;exitDx=0;exitDy=0;entryX=0;entryY=0.5;entryDx=0;entryDy=0;startArrow=classic;startFill=1;" edge="1" parent="1" source="PcwNcNAhhEbV8BFVs8KB-16" target="PcwNcNAhhEbV8BFVs8KB-22">
          <mxGeometry relative="1" as="geometry" />
        </mxCell>
        <mxCell id="PcwNcNAhhEbV8BFVs8KB-16" value="worker&lt;br&gt;isdiptrainercn&lt;br&gt;CN" style="rounded=1;whiteSpace=wrap;html=1;" vertex="1" parent="1">
          <mxGeometry x="130" y="580" width="120" height="60" as="geometry" />
        </mxCell>
        <mxCell id="PcwNcNAhhEbV8BFVs8KB-17" style="edgeStyle=none;rounded=0;orthogonalLoop=1;jettySize=auto;html=1;exitX=0.5;exitY=0;exitDx=0;exitDy=0;entryX=0.5;entryY=1;entryDx=0;entryDy=0;startArrow=classic;startFill=1;" edge="1" source="PcwNcNAhhEbV8BFVs8KB-19" target="PcwNcNAhhEbV8BFVs8KB-13" parent="1">
          <mxGeometry relative="1" as="geometry" />
        </mxCell>
        <mxCell id="PcwNcNAhhEbV8BFVs8KB-19" value="worker&lt;br&gt;isdiptrainer&lt;br&gt;GN" style="rounded=1;whiteSpace=wrap;html=1;" vertex="1" parent="1">
          <mxGeometry x="514" y="580" width="120" height="60" as="geometry" />
        </mxCell>
        <mxCell id="PcwNcNAhhEbV8BFVs8KB-24" style="edgeStyle=none;rounded=0;orthogonalLoop=1;jettySize=auto;html=1;exitX=1;exitY=0.5;exitDx=0;exitDy=0;startArrow=classic;startFill=1;" edge="1" parent="1" source="PcwNcNAhhEbV8BFVs8KB-22" target="PcwNcNAhhEbV8BFVs8KB-19">
          <mxGeometry relative="1" as="geometry" />
        </mxCell>
        <mxCell id="PcwNcNAhhEbV8BFVs8KB-22" value="mpc-proxy&lt;br&gt;isdiptrainer&lt;br&gt;GN" style="rounded=1;whiteSpace=wrap;html=1;" vertex="1" parent="1">
          <mxGeometry x="320" y="580" width="120" height="60" as="geometry" />
        </mxCell>
        <mxCell id="PcwNcNAhhEbV8BFVs8KB-26" value="OB" style="rounded=1;whiteSpace=wrap;html=1;" vertex="1" parent="1">
          <mxGeometry x="330" y="10" width="120" height="60" as="geometry" />
        </mxCell>
        <mxCell id="PcwNcNAhhEbV8BFVs8KB-28" value="OB" style="rounded=1;whiteSpace=wrap;html=1;" vertex="1" parent="1">
          <mxGeometry x="320" y="380" width="120" height="60" as="geometry" />
        </mxCell>
        <mxCell id="PcwNcNAhhEbV8BFVs8KB-39" style="edgeStyle=none;rounded=0;orthogonalLoop=1;jettySize=auto;html=1;exitX=0.5;exitY=0;exitDx=0;exitDy=0;entryX=0.5;entryY=1;entryDx=0;entryDy=0;startArrow=none;startFill=0;" edge="1" source="PcwNcNAhhEbV8BFVs8KB-40" target="PcwNcNAhhEbV8BFVs8KB-49" parent="1">
          <mxGeometry relative="1" as="geometry" />
        </mxCell>
        <mxCell id="PcwNcNAhhEbV8BFVs8KB-40" value="riskgocoordinator&lt;br&gt;CN" style="rounded=1;whiteSpace=wrap;html=1;" vertex="1" parent="1">
          <mxGeometry x="960" y="100" width="120" height="60" as="geometry" />
        </mxCell>
        <mxCell id="PcwNcNAhhEbV8BFVs8KB-41" style="rounded=0;orthogonalLoop=1;jettySize=auto;html=1;exitX=0.5;exitY=0;exitDx=0;exitDy=0;entryX=0.5;entryY=1;entryDx=0;entryDy=0;startArrow=classic;startFill=1;" edge="1" source="PcwNcNAhhEbV8BFVs8KB-43" target="PcwNcNAhhEbV8BFVs8KB-40" parent="1">
          <mxGeometry relative="1" as="geometry" />
        </mxCell>
        <mxCell id="PcwNcNAhhEbV8BFVs8KB-42" style="edgeStyle=none;rounded=0;orthogonalLoop=1;jettySize=auto;html=1;exitX=0.5;exitY=1;exitDx=0;exitDy=0;startArrow=none;startFill=0;" edge="1" source="PcwNcNAhhEbV8BFVs8KB-43" target="PcwNcNAhhEbV8BFVs8KB-47" parent="1">
          <mxGeometry relative="1" as="geometry" />
        </mxCell>
        <mxCell id="PcwNcNAhhEbV8BFVs8KB-43" value="riskgopredictorzz&lt;br&gt;CN" style="rounded=1;whiteSpace=wrap;html=1;" vertex="1" parent="1">
          <mxGeometry x="880" y="210" width="120" height="60" as="geometry" />
        </mxCell>
        <mxCell id="PcwNcNAhhEbV8BFVs8KB-44" style="edgeStyle=none;rounded=0;orthogonalLoop=1;jettySize=auto;html=1;exitX=0.5;exitY=0;exitDx=0;exitDy=0;entryX=0.5;entryY=1;entryDx=0;entryDy=0;startArrow=classic;startFill=1;" edge="1" source="PcwNcNAhhEbV8BFVs8KB-46" target="PcwNcNAhhEbV8BFVs8KB-40" parent="1">
          <mxGeometry relative="1" as="geometry" />
        </mxCell>
        <mxCell id="PcwNcNAhhEbV8BFVs8KB-45" style="edgeStyle=none;rounded=0;orthogonalLoop=1;jettySize=auto;html=1;exitX=0.5;exitY=1;exitDx=0;exitDy=0;startArrow=none;startFill=0;" edge="1" source="PcwNcNAhhEbV8BFVs8KB-46" target="PcwNcNAhhEbV8BFVs8KB-48" parent="1">
          <mxGeometry relative="1" as="geometry" />
        </mxCell>
        <mxCell id="PcwNcNAhhEbV8BFVs8KB-46" value="riskgopredictor&lt;br&gt;Bank" style="rounded=1;whiteSpace=wrap;html=1;" vertex="1" parent="1">
          <mxGeometry x="1034" y="210" width="120" height="60" as="geometry" />
        </mxCell>
        <mxCell id="PcwNcNAhhEbV8BFVs8KB-47" value="feature&lt;br&gt;CN" style="rounded=1;whiteSpace=wrap;html=1;" vertex="1" parent="1">
          <mxGeometry x="880" y="300" width="120" height="60" as="geometry" />
        </mxCell>
        <mxCell id="PcwNcNAhhEbV8BFVs8KB-48" value="feature&lt;br&gt;Bank" style="rounded=1;whiteSpace=wrap;html=1;" vertex="1" parent="1">
          <mxGeometry x="1034" y="300" width="120" height="60" as="geometry" />
        </mxCell>
        <mxCell id="PcwNcNAhhEbV8BFVs8KB-49" value="OB" style="rounded=1;whiteSpace=wrap;html=1;" vertex="1" parent="1">
          <mxGeometry x="960" y="20" width="120" height="60" as="geometry" />
        </mxCell>
      </root>
    </mxGraphModel>
  </diagram>
</mxfile>
